<svg xmlns="http://www.w3.org/2000/svg" width="385.374" height="73" viewBox="0 0 385.374 73">
  <g id="注释" transform="translate(-197 -447)">
    <g id="椭圆_6" data-name="椭圆 6" transform="translate(300 470)" fill="#fff" stroke="#707070" stroke-width="1">
      <circle cx="25" cy="25" r="25" stroke="none"/>
      <circle cx="25" cy="25" r="24.5" fill="none"/>
    </g>
    <g id="椭圆_11" data-name="椭圆 11" transform="translate(410 470)" fill="#fff" stroke="#707070" stroke-width="1">
      <circle cx="25" cy="25" r="25" stroke="none"/>
      <circle cx="25" cy="25" r="24.5" fill="none"/>
    </g>
    <line id="直线_15" data-name="直线 15" x2="122" transform="translate(460 495)" fill="none" stroke="#707070" stroke-width="1"/>
    <line id="直线_6" data-name="直线 6" x2="103" transform="translate(197 494.5)" fill="none" stroke="#707070" stroke-width="1"/>
    <line id="直线_12" data-name="直线 12" x2="60.247" transform="translate(350 494.5)" fill="none" stroke="#707070" stroke-width="1"/>
    <line id="直线_64" data-name="直线 64" x1="7" y2="5" transform="translate(403.247 494.5)" fill="none" stroke="#707070" stroke-width="1"/>
    <line id="直线_70" data-name="直线 70" x1="7" y2="5" transform="translate(293 494.5)" fill="none" stroke="#707070" stroke-width="1"/>
    <line id="直线_30" data-name="直线 30" x1="7" y2="5" transform="translate(575.084 495)" fill="none" stroke="#707070" stroke-width="1"/>
    <line id="直线_43" data-name="直线 43" x1="7" y2="5" transform="translate(337.788 465.989) rotate(114)" fill="none" stroke="#707070" stroke-width="1"/>
    <line id="直线_65" data-name="直线 65" x2="7" y2="5" transform="translate(403.247 489.5)" fill="none" stroke="#707070" stroke-width="1"/>
    <line id="直线_71" data-name="直线 71" x2="7" y2="5" transform="translate(293 489.5)" fill="none" stroke="#707070" stroke-width="1"/>
    <line id="直线_31" data-name="直线 31" x2="7" y2="5" transform="translate(575.084 490)" fill="none" stroke="#707070" stroke-width="1"/>
    <line id="直线_42" data-name="直线 42" x2="7" y2="5" transform="translate(342.356 468.023) rotate(114)" fill="none" stroke="#707070" stroke-width="1"/>
    <path id="路径_3" data-name="路径 3" d="M1258.593,500.917c-13.575-18.717,10.093-24.365,18.66-17.973s1.371,17.243,1.371,17.243" transform="matrix(0.998, 0.07, -0.07, 0.998, -905.914, -115.9)" fill="none" stroke="#707070" stroke-width="1"/>
    <text id="其他符号" transform="translate(339 464)" fill="#707070" font-size="16" font-family="YuGothicUI-Regular, Yu Gothic UI"><tspan x="0" y="0">其他符号</tspan></text>
    <text id="_" data-name="{" transform="translate(216 491)" fill="#707070" font-size="16" font-family="SegoeUI, Segoe UI"><tspan x="0" y="0">{</tspan></text>
    <text id="_2" data-name="}" transform="translate(372 491)" fill="#707070" font-size="16" font-family="SegoeUI, Segoe UI"><tspan x="0" y="0">}</tspan></text>
    <text id="注释-2" data-name="注释" transform="translate(524 490)" fill="#707070" font-size="16" font-family="YuGothicUI-Regular, Yu Gothic UI"><tspan x="0" y="0">注</tspan><tspan y="0" font-family="MicrosoftJhengHeiUIRegular, Microsoft JhengHei UI">释</tspan></text>
  </g>
</svg>
