<svg xmlns="http://www.w3.org/2000/svg" width="386.374" height="72.83" viewBox="0 0 386.374 72.83">
  <g id="字符串标识符" transform="translate(-196 -623.17)">
    <g id="椭圆_8" data-name="椭圆 8" transform="translate(299 646)" fill="#fff" stroke="#707070" stroke-width="1">
      <circle cx="25" cy="25" r="25" stroke="none"/>
      <circle cx="25" cy="25" r="24.5" fill="none"/>
    </g>
    <g id="椭圆_10" data-name="椭圆 10" transform="translate(409 646)" fill="#fff" stroke="#707070" stroke-width="1">
      <circle cx="25" cy="25" r="25" stroke="none"/>
      <circle cx="25" cy="25" r="24.5" fill="none"/>
    </g>
    <line id="直线_16" data-name="直线 16" x2="123" transform="translate(459 671)" fill="none" stroke="#707070" stroke-width="1"/>
    <line id="直线_8" data-name="直线 8" x2="103" transform="translate(196 670.5)" fill="none" stroke="#707070" stroke-width="1"/>
    <line id="直线_11" data-name="直线 11" x2="60.247" transform="translate(349 670.5)" fill="none" stroke="#707070" stroke-width="1"/>
    <line id="直线_26" data-name="直线 26" x1="7" y2="5" transform="translate(575.084 671)" fill="none" stroke="#707070" stroke-width="1"/>
    <line id="直线_60" data-name="直线 60" x1="7" y2="5" transform="translate(402 670.5)" fill="none" stroke="#707070" stroke-width="1"/>
    <line id="直线_74" data-name="直线 74" x1="7" y2="5" transform="translate(293 671)" fill="none" stroke="#707070" stroke-width="1"/>
    <line id="直线_51" data-name="直线 51" x1="7" y2="5" transform="translate(337.788 641.989) rotate(114)" fill="none" stroke="#707070" stroke-width="1"/>
    <line id="直线_27" data-name="直线 27" x2="7" y2="5" transform="translate(575.084 666)" fill="none" stroke="#707070" stroke-width="1"/>
    <line id="直线_61" data-name="直线 61" x2="7" y2="5" transform="translate(402 665.5)" fill="none" stroke="#707070" stroke-width="1"/>
    <line id="直线_75" data-name="直线 75" x2="7" y2="5" transform="translate(293 666)" fill="none" stroke="#707070" stroke-width="1"/>
    <line id="直线_50" data-name="直线 50" x2="7" y2="5" transform="translate(342.356 644.023) rotate(114)" fill="none" stroke="#707070" stroke-width="1"/>
    <path id="路径_7" data-name="路径 7" d="M1258.593,499.624c-13.575-17.537,10.093-22.829,18.66-16.84s1.371,16.156,1.371,16.156" transform="matrix(0.998, 0.07, -0.07, 0.998, -906.004, 61.39)" fill="none" stroke="#707070" stroke-width="1"/>
    <text id="其他符号" transform="translate(339 640.17)" fill="#707070" font-size="16" font-family="YuGothicUI-Regular, Yu Gothic UI"><tspan x="0" y="0">其他符号</tspan></text>
    <text id="_" data-name="&apos;" transform="translate(219 666)" fill="#707070" font-size="16" font-family="SegoeUI, Segoe UI"><tspan x="0" y="0">&apos;</tspan></text>
    <text id="_2" data-name="&apos;" transform="translate(374 667)" fill="#707070" font-size="16" font-family="SegoeUI, Segoe UI"><tspan x="0" y="0">&apos;</tspan></text>
    <text id="字符串标识符-2" data-name="字符串标识符" transform="translate(473 667)" fill="#707070" font-size="16" font-family="YuGothicUI-Regular, Yu Gothic UI"><tspan x="0" y="0">字符串</tspan><tspan y="0" font-family="MicrosoftJhengHeiUIRegular, Microsoft JhengHei UI">标识</tspan><tspan y="0">符</tspan></text>
  </g>
</svg>
